<?xml version="1.0" encoding="utf-8"?>
<!-- Generator: Adobe Illustrator 21.0.2, SVG Export Plug-In . SVG Version: 6.00 Build 0)  -->
<svg version="1.1" id="Layer_1" xmlns="http://www.w3.org/2000/svg" xmlns:xlink="http://www.w3.org/1999/xlink" x="0px" y="0px"
	 viewBox="0 0 89.4 100" style="enable-background:new 0 0 89.4 100;" xml:space="preserve">
<path d="M87.1,23.6l-41-23.2c-1-0.5-2.1-0.5-3.1,0L1.6,23.9c-0.2,0.1-0.5,0.3-0.7,0.5c-0.1,0.1-0.2,0.3-0.4,0.5
	c-0.1,0.1-0.2,0.3-0.3,0.5c-0.1,0.1-0.1,0.3-0.1,0.4s0,0.1,0,0.2C0,26.2,0,26.4,0,26.6v48.1c0,1.1,0.6,2.2,1.6,2.7l41.5,22.2
	c0.5,0.2,1,0.4,1.5,0.4h0.2c0.5,0,1-0.1,1.5-0.4l41.5-22.2c1-0.5,1.6-1.6,1.6-2.7V26.6C89.5,25.1,88.5,23.9,87.1,23.6z M44.6,6.6
	l15.1,8.6l-16.3,10L28,16L44.6,6.6z M22.8,81.6L6.2,72.7V52.9l16.6,8.7V81.6z M22.8,59.3L6.2,50.6V29.5l16.6,9.4V59.3z M7.3,27.8
	l18.6-10.6l15.5,9.1L23.8,37.1L7.3,27.8z M43.8,92.8l-0.2-0.1l-18.7-10v-20l18.7,9.8l0.2,0.1V92.8z M43.8,70.4l-0.2-0.1l-18.7-9.8
	V40.1l18.7,10.6l0.2,0.1V70.4z M44.7,49l-0.1-0.1L25.9,38.3l17.5-10.7l19,11.2l0.1,0.1L44.7,49z M62.7,83.7l-16.8,9l-0.2,0.1V72.6
	l0.2-0.1l16.8-8.8V83.7z M62.7,61.2L45.9,70l-0.2,0.1V50.7L62.8,41v20.2H62.7z M64.5,37.6c-0.1-0.1-0.1-0.1-0.2-0.2L45.5,26.3
	l16.3-10l20.1,11.4l0.1,0.1L64.5,37.6C64.6,37.7,64.5,37.7,64.5,37.6z M83.3,72.7l-18.4,9.9V62.5l18.4-9.7V72.7z M83.3,50.5
	l-18.4,9.7V39.9l18.4-10.5V50.5z"/>
</svg>
